<svg xmlns="http://www.w3.org/2000/svg" fill="none" viewBox="0 0 328 100" height="100" width="328">
<g clip-path="url(#clip0_215_261)">
<path fill="#00A591" d="M0.831543 0.163086V61.506H189.776V0.163086H0.831543Z"></path>
<path fill="white" d="M85.3664 41.721C85.4316 38.3964 85.4642 34.6969 85.4642 30.6226C85.4805 26.4668 85.4479 22.751 85.3664 19.4752C85.3338 17.7966 85.2849 16.5254 85.236 15.6943C85.1871 14.8794 85.1382 14.0646 85.0566 13.266C86.2631 13.3475 87.6326 13.3801 89.1652 13.3801C90.6977 13.3801 92.0836 13.3475 93.29 13.266C93.2085 14.0483 93.1596 14.8468 93.127 15.678C93.0618 16.5091 93.0129 17.764 92.9966 19.4752C92.9151 22.7836 92.8825 26.4994 92.8825 30.59C92.8825 34.7295 92.9151 38.429 92.9966 41.721C93.0129 43.4159 93.0618 44.7034 93.127 45.5183C93.1596 46.3494 93.2085 47.148 93.29 47.914C92.0836 47.8488 90.6977 47.8162 89.1815 47.8162C87.6326 47.8162 86.2631 47.8488 85.0566 47.914C85.1382 47.1317 85.1871 46.3005 85.236 45.4857C85.2849 44.6708 85.3338 43.4159 85.3664 41.721Z"></path>
<path fill="white" d="M99.3879 42.047C99.4531 38.7223 99.5183 34.9739 99.5183 30.7692C99.5183 26.5483 99.4531 22.7836 99.3879 19.4427C99.339 17.7477 99.3064 16.4766 99.2738 15.6617C99.2249 14.8305 99.1596 14.0483 99.0781 13.266C100.187 13.4779 101.507 13.5919 103.024 13.6734C104.556 13.7549 105.893 13.7549 106.985 13.6734C108.811 13.5593 110.491 13.4779 112.04 13.3964C113.572 13.3149 114.55 13.266 114.958 13.266C120.338 13.266 124.463 14.7164 127.349 17.6174C130.235 20.502 131.686 24.6415 131.686 30.0033C131.686 35.854 130.039 40.3357 126.795 43.4974C123.534 46.6428 118.871 48.2073 112.806 48.2073C112.333 48.2073 111.29 48.1747 109.692 48.1095C108.078 48.0281 106.382 47.9303 104.556 47.8162C103.806 47.7673 102.91 47.7836 101.85 47.8651C100.79 47.9466 99.877 48.0606 99.0781 48.2073C99.1596 47.4576 99.2249 46.6428 99.2738 45.8279C99.3064 45.0131 99.339 43.7419 99.3879 42.047ZM107.018 44.5078C108.502 44.6708 110.099 44.7523 111.844 44.736C115.643 44.736 118.545 43.4485 120.518 40.8899C122.474 38.3475 123.469 34.5991 123.469 29.6936C123.469 25.4726 122.458 22.2621 120.452 20.0619C118.463 17.8781 115.529 16.7699 111.681 16.7699C110.002 16.7699 108.469 16.8351 107.018 16.9492C106.953 20.8931 106.92 25.4889 106.92 30.7367C106.92 35.9844 106.953 40.5802 107.018 44.5078Z"></path>
<path fill="white" d="M136.234 41.721C136.316 38.3964 136.332 34.6969 136.332 30.6226C136.332 26.4668 136.316 22.751 136.234 19.4752C136.185 17.764 136.153 16.5091 136.104 15.678C136.071 14.8468 136.022 14.0483 135.941 13.266L139.886 13.3801L148.413 13.266C151.658 13.266 154.266 13.9831 156.239 15.3357C158.212 16.7373 159.19 18.5463 159.19 20.8116C159.19 23.4355 158.147 25.5704 156.027 27.1676C154.788 28.1128 153.353 28.7647 151.674 29.1232C153.598 29.547 155.245 30.2803 156.647 31.3397C158.815 33.0509 159.907 35.3325 159.907 38.1519C159.907 41.1017 158.848 43.4485 156.761 45.2412C154.658 47.0176 151.902 47.914 148.446 47.914L139.886 47.8162L135.941 47.914C136.022 47.148 136.071 46.3494 136.104 45.502C136.153 44.6871 136.185 43.4159 136.234 41.721ZM143.653 28.2106H144.631C146.816 28.2106 148.495 27.6565 149.701 26.5157C150.875 25.3912 151.478 23.794 151.478 21.708C151.478 20.0619 150.957 18.7908 149.913 17.9107C148.854 17.0144 147.354 16.558 145.413 16.558C144.81 16.558 144.24 16.6232 143.653 16.721V28.2106ZM143.653 44.4589L145.772 44.6382C147.859 44.6382 149.457 44.0352 150.582 42.8129C151.707 41.6232 152.277 39.8957 152.277 37.663C152.277 35.6421 151.674 34.0613 150.484 33.002C149.294 31.9264 147.549 31.3885 145.267 31.3885H143.653V44.4589Z"></path>
<path fill="white" d="M167.456 41.721C167.538 38.3964 167.57 34.6969 167.57 30.6226C167.586 26.4668 167.554 22.751 167.456 19.4752C167.407 17.7966 167.391 16.5254 167.342 15.6943C167.309 14.8794 167.244 14.0646 167.163 13.266C168.369 13.3475 169.739 13.3801 171.271 13.3801C172.804 13.3801 174.173 13.3475 175.396 13.266C175.314 14.0483 175.266 14.8468 175.217 15.678C175.168 16.5091 175.135 17.764 175.086 19.4752C175.021 22.7836 174.988 26.4994 174.988 30.59C174.988 34.7295 175.021 38.429 175.086 41.721C175.135 43.4159 175.168 44.7034 175.217 45.5183C175.266 46.3494 175.314 47.148 175.396 47.914C174.173 47.8488 172.82 47.8162 171.287 47.8162C169.755 47.8162 168.369 47.8488 167.163 47.914C167.244 47.1317 167.309 46.3005 167.342 45.4857C167.391 44.6708 167.407 43.4159 167.456 41.721Z"></path>
<path fill="white" d="M48.1776 61.6037C63.0956 59.1917 74.4756 46.3495 74.4756 30.8508C74.4756 15.3358 63.0467 2.47724 48.0635 0.081543H38.1019C23.135 2.47724 11.7061 15.3358 11.7061 30.8508C11.7061 46.3495 23.0861 59.1917 37.9877 61.6037C38.0041 61.6037 48.1287 61.6037 48.1776 61.6037Z"></path>
<path fill="#F26F24" d="M42.8955 54.8567C51.993 54.8567 59.3623 47.5392 59.3786 38.4942C59.3786 32.2687 55.9711 26.4342 50.9333 23.5985C49.9224 23.0444 46.2215 19.6057 46.2215 25.7661C46.2215 29.3841 46.2215 47.0829 46.2215 50.326C46.2215 51.4017 43.727 52.0535 42.8466 52.0535C41.9336 52.0535 39.4554 51.3528 39.4554 50.326C39.4554 47.2296 39.4717 29.2863 39.4717 25.7661C39.4717 19.3612 35.8523 22.9955 34.7925 23.5985C29.7547 26.418 26.3472 32.2687 26.3472 38.4779C26.3472 47.5066 33.7328 54.8567 42.8955 54.8567Z"></path>
<path fill="#F26F24" d="M42.9114 17.927C44.9331 17.927 46.5961 16.2484 46.6124 14.2113C46.5961 12.1578 44.9331 10.4955 42.9114 10.4955C40.8571 10.4955 39.1779 12.1578 39.1779 14.2113C39.1615 16.2484 40.8408 17.927 42.9114 17.927Z"></path>
<path fill="#F26F24" d="M50.9983 11.3267C52.6613 8.62133 54.0634 10.7563 58.8404 15.3684C64.0413 20.4205 65.8674 26.1083 65.8674 31.7634C65.8674 44.3775 55.7101 54.8567 42.9932 54.8567C29.5915 54.8567 19.8418 44.0679 19.8418 31.7471C19.8418 25.163 22.2711 19.8664 26.8687 15.3521C31.1566 11.1311 33.2109 8.32798 34.7108 11.3104C38.3303 18.416 32.0044 19.5405 28.7111 24.1363C25.6459 28.4062 24.5862 32.0242 24.5862 35.8704C24.5862 45.8443 32.2327 54.8567 42.9932 54.8567C53.1667 54.8567 61.1067 46.0561 61.1067 35.9192C61.1067 31.193 59.2969 27.0861 56.9981 24.1363C53.0363 19.0679 47.656 18.3834 50.9983 11.3267Z"></path>
<path fill="#F26F24" d="M189.694 0.146729V61.5222H326.907V0.146729H189.694Z"></path>
<path fill="white" d="M282.74 35.5444C282.838 35.0881 282.969 34.6644 283.148 34.257C283.311 33.8658 283.507 33.4747 283.735 33.1324C283.996 32.7087 284.273 32.3339 284.615 31.9916C284.958 31.6657 285.316 31.3397 285.74 31.0627C286.148 30.8019 286.572 30.5738 287.028 30.3782C287.468 30.1826 287.925 30.0034 288.398 29.8404H289.735H293.892V25.8313L288.642 25.8476V25.8965C287.941 25.9291 287.256 26.0431 286.588 26.2387C285.919 26.4343 285.267 26.6787 284.632 26.9721C284.224 27.1839 283.833 27.4447 283.474 27.7055C283.099 27.9825 282.74 28.2759 282.398 28.6018C281.876 29.0907 281.403 29.5959 280.963 30.15C280.523 30.7042 280.115 31.2746 279.773 31.8776C279.512 32.3665 279.3 32.8554 279.105 33.3606C278.909 33.8495 278.778 34.371 278.681 34.9251C278.55 35.5281 278.469 36.1474 278.436 36.7504C278.42 37.3697 278.42 37.989 278.452 38.6246C278.485 38.8202 278.518 38.9995 278.55 39.1787C278.566 39.358 278.599 39.5373 278.648 39.7328C278.746 40.124 278.844 40.4988 278.974 40.8736C279.105 41.2322 279.251 41.5907 279.414 41.9493C279.626 42.4056 279.887 42.8456 280.164 43.2693C280.458 43.7094 280.767 44.1168 281.077 44.5079C281.469 44.9154 281.876 45.3228 282.3 45.6976C282.74 46.0888 283.18 46.431 283.67 46.7081C284.273 47.0666 284.892 47.36 285.545 47.6207C286.197 47.8815 286.881 48.077 287.582 48.1911L289.914 48.2889L293.843 48.2726L293.827 44.6709C293.517 44.7035 293.191 44.7198 292.849 44.7524C292.523 44.7524 292.196 44.7524 291.87 44.7198C291.137 44.7524 290.403 44.7198 289.669 44.622C288.936 44.5405 288.218 44.3939 287.485 44.1983C287.061 44.0353 286.669 43.8397 286.262 43.5953C285.854 43.3671 285.479 43.0738 285.137 42.7641C284.827 42.5034 284.534 42.21 284.273 41.9004C284.028 41.5744 283.784 41.2322 283.555 40.8899C283.344 40.4662 283.148 40.0425 282.985 39.5862C282.822 39.1298 282.708 38.6735 282.642 38.1846C282.61 38.0216 282.594 37.8749 282.594 37.7283V37.272C282.594 36.9786 282.61 36.7015 282.642 36.4082C282.675 36.1148 282.708 35.8215 282.74 35.5444ZM270.398 39.6025C270.3 40.0914 270.137 40.5803 269.958 41.0692C269.73 41.4766 269.453 41.8678 269.143 42.2426C268.833 42.6175 268.458 42.9434 268.051 43.2367C267.659 43.4975 267.268 43.7257 266.86 43.9701C266.436 44.182 266.013 44.3776 265.572 44.5405C265.246 44.6383 264.92 44.7035 264.578 44.7361C264.252 44.7687 263.909 44.785 263.567 44.785C262.964 44.785 262.361 44.7198 261.774 44.5894C261.187 44.4753 260.616 44.2635 260.078 43.9701C259.475 43.5953 258.904 43.139 258.382 42.6012C257.861 42.0796 257.42 41.5092 257.062 40.8899C256.687 40.2543 256.393 39.5862 256.181 38.9017C255.969 38.2009 255.839 37.5001 255.823 36.7504C255.806 36.5223 255.806 36.2941 255.806 36.0497C255.806 35.8215 255.823 35.577 255.855 35.3652C255.888 35.137 255.937 34.9088 255.969 34.6644C256.018 34.4199 256.084 34.1918 256.149 33.9636C256.459 32.9369 256.98 32.0405 257.714 31.2583C258.448 30.4923 259.295 29.9382 260.29 29.6122C260.73 29.4656 261.187 29.3352 261.643 29.2537C262.1 29.1722 262.572 29.1396 263.062 29.1396C263.567 29.1559 264.072 29.2374 264.562 29.3678C265.051 29.4982 265.523 29.6611 265.964 29.8567C266.42 30.0686 266.811 30.3293 267.138 30.6064C267.48 30.8997 267.79 31.2094 268.067 31.5353L257.437 37.7609L259.312 41.0366L273.855 32.6272C273.463 31.7961 273.007 31.0301 272.485 30.313C271.963 29.6122 271.36 28.9603 270.692 28.341C270.089 27.8684 269.436 27.4447 268.735 27.0699C268.034 26.7113 267.317 26.418 266.583 26.1898C266.11 26.0268 265.605 25.9128 265.083 25.8313C264.545 25.7498 264.04 25.7009 263.534 25.6683C263.274 25.6357 263.013 25.6194 262.768 25.6194C262.507 25.6194 262.246 25.6194 262.002 25.6194V25.6683C261.203 25.7009 260.437 25.815 259.687 26.0268C258.937 26.2387 258.203 26.5321 257.518 26.9232C256.817 27.3143 256.165 27.7706 255.578 28.3085C254.991 28.83 254.486 29.4167 254.029 30.0686C253.622 30.7367 253.263 31.4375 252.986 32.1546C252.709 32.888 252.48 33.6377 252.334 34.4036C252.268 34.7296 252.203 35.0718 252.154 35.4304C252.105 35.8052 252.089 36.1637 252.089 36.5223C252.057 36.6852 252.04 36.8482 252.04 37.0275V37.5816V38.2824C252.04 38.5268 252.073 38.7713 252.105 39.0321C252.448 40.5314 253.018 41.9493 253.801 43.2856C254.584 44.622 255.562 45.7791 256.736 46.7733C257.372 47.2133 258.056 47.5881 258.79 47.8978C259.524 48.2074 260.274 48.3867 261.04 48.4519C261.415 48.5171 261.806 48.5497 262.181 48.5822C262.572 48.6148 262.947 48.6311 263.339 48.6311H263.909H264.529C264.708 48.5985 264.904 48.566 265.1 48.5334C265.279 48.5008 265.475 48.4682 265.67 48.4356C266.436 48.3378 267.17 48.1422 267.888 47.8652C268.605 47.5718 269.29 47.197 269.958 46.7407C270.594 46.3006 271.181 45.7954 271.735 45.225C272.273 44.6546 272.746 44.0353 273.154 43.3671C273.561 42.6989 273.904 41.9819 274.148 41.2485C274.409 40.5151 274.556 39.7165 274.621 38.8854L270.61 38.0705C270.578 38.592 270.512 39.0972 270.398 39.6025ZM315.837 34.5503C315.87 33.5236 315.723 32.5131 315.38 31.519C315.054 30.5249 314.549 29.6122 313.913 28.7811C313.31 28.0803 312.625 27.4773 311.859 27.0047C311.109 26.5158 310.261 26.1735 309.332 25.9454C309.022 25.8802 308.712 25.8313 308.402 25.7824C308.093 25.7335 307.783 25.7009 307.473 25.7009H307.114C307 25.7009 306.886 25.7172 306.756 25.7498C305.761 25.9128 304.816 26.2224 303.919 26.6787C303.006 27.1351 302.191 27.6892 301.457 28.3736L301.441 16.1344H297.332L297.397 48.3215L301.506 48.3052L301.473 36.0171C301.506 35.1859 301.636 34.3873 301.848 33.6214C302.077 32.8391 302.403 32.122 302.859 31.4538C303.104 31.1279 303.397 30.8345 303.74 30.5738C304.066 30.3293 304.441 30.1337 304.848 30.0034C305.207 29.8078 305.582 29.6611 305.973 29.5633C306.381 29.4656 306.772 29.4167 307.196 29.4167C307.962 29.4493 308.663 29.6448 309.315 29.9871C309.968 30.3456 310.506 30.8345 310.913 31.4864C311.174 31.7961 311.37 32.122 311.516 32.4643C311.663 32.8065 311.745 33.1487 311.777 33.5073L311.81 48.2889L315.87 48.2726L315.837 34.5503ZM201.906 26.1735L201.939 48.566H206.145L206.096 26.1735H201.906ZM206.373 21.0562C206.373 21.0236 206.373 20.991 206.357 20.9421C206.341 20.8932 206.324 20.8606 206.324 20.828C206.324 20.7628 206.324 20.6976 206.308 20.6487C206.292 20.5999 206.276 20.551 206.276 20.4858C206.21 20.3228 206.145 20.1598 206.064 19.9969C205.982 19.8502 205.901 19.7035 205.803 19.5731C205.574 19.2472 205.297 19.0027 204.939 18.8234C204.596 18.6442 204.205 18.5627 203.797 18.5627V18.6116H203.602C203.536 18.6116 203.471 18.6279 203.406 18.6605C203.259 18.6605 203.08 18.6931 202.917 18.7746C202.738 18.856 202.575 18.9538 202.412 19.0516C202.102 19.3776 201.857 19.7198 201.694 20.1109C201.531 20.4858 201.433 20.9095 201.417 21.3658V21.4799C201.417 21.5288 201.433 21.5614 201.45 21.6103V21.7244C201.466 21.7733 201.466 21.8058 201.466 21.8384C201.564 22.0666 201.678 22.2785 201.825 22.4903C201.971 22.7022 202.134 22.8815 202.314 23.0444C202.509 23.1748 202.705 23.2889 202.917 23.3867C203.129 23.4845 203.341 23.5497 203.569 23.566C203.846 23.566 204.14 23.5497 204.417 23.5008C204.71 23.4519 204.971 23.3704 205.232 23.2726C205.428 23.1422 205.591 23.0118 205.737 22.8489C205.868 22.6859 206.015 22.5066 206.145 22.3111C206.161 22.2133 206.194 22.1318 206.227 22.0503C206.259 21.9688 206.292 21.9036 206.324 21.8384C206.324 21.7733 206.341 21.6918 206.357 21.6103C206.373 21.5288 206.373 21.4473 206.373 21.3495V21.2028V21.0562ZM239.829 53.667C237.334 53.3899 234.97 54.1233 232.671 54.8241L228.856 55.8019C227.487 56.0138 224.976 56.1442 223.443 54.5633C222.286 53.3736 221.911 51.3202 222.351 48.403H224.617L224.601 44.1657H216.906L216.889 36.669C216.889 36.343 216.889 36.0334 216.906 35.7074C216.922 35.3815 216.955 35.0718 216.987 34.7459C217.003 34.4525 217.052 34.1429 217.118 33.8169C217.183 33.5073 217.248 33.1813 217.313 32.8554C217.558 32.122 217.982 31.5027 218.569 30.9812C219.156 30.476 219.84 30.1175 220.607 29.9219C220.851 29.8241 221.112 29.7589 221.389 29.6937C221.65 29.6448 221.927 29.6285 222.172 29.6285H222.433C222.514 29.6285 222.596 29.6448 222.661 29.6774C222.71 29.6774 222.791 29.6774 222.873 29.6937C222.938 29.71 223.036 29.7263 223.134 29.7263C223.949 29.8241 224.699 30.1012 225.351 30.5901C226.003 31.0627 226.509 31.682 226.851 32.4154C227.079 32.7902 227.258 33.1976 227.405 33.5888C227.552 33.9962 227.633 34.4036 227.666 34.8111L227.699 48.403L231.758 48.3867L231.726 32.888C231.465 31.7635 231.008 30.7367 230.34 29.8078C229.671 28.8789 228.873 28.0966 227.943 27.4447C227.536 27.1676 227.095 26.9069 226.623 26.7113C226.166 26.4995 225.677 26.3365 225.172 26.255C224.731 26.1246 224.275 26.0431 223.818 25.9942C223.346 25.9454 222.905 25.9128 222.449 25.9128H222.074C221.943 25.9128 221.813 25.9291 221.683 25.9617C221.552 25.9617 221.438 25.9779 221.308 25.9942C221.177 26.0105 221.047 25.9942 220.933 25.9617V26.0105C219.873 26.1572 218.878 26.4506 217.916 26.9395C216.971 27.4284 216.107 28.0314 215.34 28.7648C214.558 29.6774 213.922 30.6879 213.465 31.845C213.009 32.9695 212.781 34.1429 212.781 35.3326L212.797 44.182H212.781L212.797 48.4356H212.813L216.906 48.4193L220.117 48.403C219.53 52.7055 220.721 54.9545 221.862 56.1279C223.525 57.8391 226.117 58.5073 229.199 58.0184L233.324 56.959C235.492 56.2909 237.546 55.6716 239.6 55.8834C242.551 56.2094 244.785 58.768 246.644 61.6364H249.236C247.035 57.9043 244.149 54.1233 239.829 53.667ZM249.334 26.092L241.215 26.1246L241.198 20.3391H237.106L237.139 41.3952V41.9493C237.139 42.1122 237.155 42.2915 237.187 42.4545C237.187 42.6175 237.187 42.7804 237.204 42.9597C237.22 43.139 237.253 43.3182 237.285 43.5138C237.351 43.8886 237.448 44.2798 237.595 44.6383C237.742 45.0131 237.937 45.3717 238.149 45.7302C238.394 46.1377 238.72 46.5125 239.079 46.8221C239.454 47.1481 239.845 47.4251 240.253 47.6533C240.595 47.8652 240.986 48.0444 241.394 48.1748C241.818 48.3052 242.225 48.3867 242.633 48.4193L249.269 48.403V44.7361L243.97 44.8013C243.644 44.7687 243.318 44.7035 242.992 44.6057C242.649 44.5079 242.356 44.3613 242.111 44.182C241.916 44.019 241.769 43.8234 241.655 43.5953C241.541 43.3671 241.459 43.139 241.394 42.8782C241.394 42.813 241.378 42.7478 241.361 42.7152C241.345 42.65 241.345 42.5849 241.345 42.4871L241.312 29.8241L249.334 29.8078V26.092Z"></path>
<path fill="#F26F24" d="M0.831543 97.2784H326.793V100.082H0.831543V97.2784Z" clip-rule="evenodd" fill-rule="evenodd"></path>
<path fill="#231F20" d="M2.38043 83.8006C2.41304 82.5131 2.42934 81.079 2.42934 79.4982C2.42934 77.901 2.41304 76.4506 2.38043 75.1957C2.36413 74.5438 2.34782 74.0549 2.33152 73.7289C2.29891 73.403 2.28261 73.0933 2.25 72.8C2.70651 72.8163 3.24453 72.8326 3.83147 72.8326C4.43471 72.8326 4.95643 72.8163 5.42924 72.8C5.39663 73.0933 5.36402 73.403 5.34772 73.7126C5.33141 74.0386 5.31511 74.5275 5.2825 75.1957C5.2662 76.4669 5.2499 77.901 5.2499 79.4819C5.2499 81.079 5.2662 82.5131 5.2825 83.8006C5.31511 84.4525 5.33141 84.9414 5.34772 85.2674C5.36402 85.577 5.39663 85.8867 5.42924 86.1963C4.95643 86.1637 4.43471 86.1474 3.84777 86.1474C3.24453 86.1474 2.70651 86.1637 2.25 86.1963C2.28261 85.8867 2.29891 85.577 2.33152 85.2511C2.34782 84.9251 2.36413 84.4525 2.38043 83.8006ZM8.90194 83.7843L8.91825 81.519L8.90194 79.27C8.90194 78.6181 8.86934 78.1455 8.85303 77.8195C8.83673 77.5099 8.80412 77.1839 8.7389 76.8743C9.1302 76.8906 9.5867 76.9069 10.1084 76.9069C10.6138 76.9069 11.0703 76.8906 11.4779 76.8743C11.4127 77.3143 11.3638 77.7055 11.3312 78.0151L11.3149 78.3085C11.4779 78.0966 11.641 77.901 11.8203 77.7381C12.554 77.021 13.4018 76.6624 14.3637 76.6624C15.293 76.6624 16.0267 76.9558 16.5647 77.5588C17.119 78.1618 17.3799 78.9929 17.3799 80.0197V81.5353L17.3962 83.7843C17.3962 84.4688 17.4288 84.974 17.4451 85.2837C17.4451 85.6096 17.4777 85.9193 17.5103 86.1963C17.1027 86.1637 16.6136 86.1474 16.0919 86.1474C15.5539 86.1474 15.0648 86.1637 14.6409 86.1963C14.7224 85.8704 14.7713 85.5607 14.8039 85.2348C14.8202 84.9088 14.8365 84.4362 14.8528 83.7843L14.8691 81.519V80.3456C14.8691 79.6774 14.7224 79.1559 14.4452 78.8137C14.1681 78.4714 13.7605 78.2922 13.2061 78.2922C12.6192 78.2922 12.179 78.4877 11.8855 78.8789C11.5758 79.27 11.429 79.8567 11.429 80.639V81.5353L11.4453 83.7843C11.4616 84.4362 11.4779 84.9088 11.4942 85.2348C11.5105 85.5607 11.5595 85.8704 11.6084 86.1963C11.1845 86.1637 10.7117 86.1474 10.1899 86.1474C9.63561 86.1474 9.1628 86.1637 8.7389 86.1963C8.78782 85.8704 8.83673 85.5607 8.85303 85.2185C8.86934 84.9088 8.90194 84.4362 8.90194 83.7843ZM25.1079 86.0334C24.4558 86.2941 23.7873 86.4245 23.1351 86.4245C22.2547 86.4245 21.6352 86.2289 21.2602 85.8541C20.8689 85.463 20.6733 84.8274 20.6733 83.9636V77.9499L20.282 77.9662C20.07 77.9662 19.8744 77.9825 19.6787 78.0151C19.4831 78.0314 19.3527 78.064 19.2711 78.0803C19.3201 77.8195 19.3364 77.6077 19.3364 77.4284C19.3364 77.2491 19.3201 77.0373 19.2711 76.7765C19.3527 76.8091 19.4994 76.8417 19.6787 76.858C19.8907 76.8906 20.0863 76.9069 20.2983 76.9069L20.6733 76.9232V76.3039C20.6733 76.092 20.657 75.8313 20.6244 75.5053C20.6081 75.1794 20.5591 74.8697 20.5102 74.5927C21.0809 74.3808 21.5863 74.1852 21.9939 74.006L23.1351 73.4845L23.3797 73.6474C23.3308 73.9408 23.2982 74.3808 23.2656 74.9838C23.233 75.6031 23.2167 76.2387 23.2004 76.9232H23.5264C23.8036 76.9232 24.0808 76.9069 24.3742 76.8743C24.6514 76.8417 24.8633 76.8091 24.9938 76.7602C24.9612 77.021 24.9286 77.2328 24.9286 77.4284C24.9286 77.6077 24.9612 77.8358 24.9938 78.0966C24.8633 78.064 24.6514 78.0151 24.3579 77.9825C24.0808 77.9499 23.7873 77.9336 23.5101 77.9336H23.2004V84.1429C23.2004 84.5992 23.2819 84.9577 23.4612 85.1859C23.6406 85.4304 23.9177 85.5444 24.2764 85.5444C24.6025 85.5444 24.8796 85.4793 25.1079 85.3978V86.0334ZM31.5642 86.4245C30.0969 86.4245 28.9393 86.0008 28.0752 85.137C27.2274 84.2733 26.7872 83.0999 26.7872 81.6168C26.7872 80.1012 27.2111 78.8789 28.0426 77.9988C28.8578 77.1025 29.9827 76.6624 31.3849 76.6624C32.6402 76.6624 33.6511 77.0536 34.3848 77.8684C34.9717 78.5203 35.3141 79.3678 35.4282 80.4108C35.4608 80.6879 35.4934 80.9649 35.4934 81.2257C35.4934 81.4864 35.4934 81.682 35.4771 81.7961V81.8124C35.2489 81.7635 34.825 81.7309 34.2217 81.6983C33.6348 81.6657 33.0315 81.6494 32.412 81.6494H29.5751C29.6403 82.7087 29.8686 83.5236 30.2762 84.1103C30.749 84.7948 31.4501 85.137 32.3957 85.137C32.8848 85.137 33.3413 85.0718 33.7652 84.9251C34.1891 84.7948 34.5804 84.5992 34.9554 84.3384L35.1347 84.534L34.613 85.6585C34.1402 85.903 33.6511 86.0985 33.1294 86.2289C32.6076 86.3593 32.0859 86.4245 31.5642 86.4245ZM32.6729 80.639V80.2804C32.6729 79.3678 32.5587 78.6833 32.3142 78.227C32.0533 77.7706 31.6946 77.5262 31.1892 77.5262H31.2055C30.6675 77.5262 30.2599 77.8358 29.9827 78.4388C29.7382 78.9603 29.5914 79.6937 29.5751 80.639H32.6729ZM39.8954 83.0673C39.8954 83.2954 39.9933 83.491 40.1889 83.6377C40.4008 83.7843 40.6454 83.8658 40.9389 83.8658H42.3247C43.4986 83.8658 44.3627 84.0777 44.917 84.5177C45.4876 84.9414 45.7648 85.6096 45.7648 86.506C45.7648 87.5164 45.3083 88.3802 44.4279 89.0972C43.5475 89.798 42.4551 90.1403 41.1671 90.1403C39.8628 90.1403 38.852 89.9447 38.1346 89.5373C37.4336 89.1298 37.0749 88.5594 37.0749 87.8098C37.0749 87.2068 37.2216 86.7341 37.5151 86.3756C37.8085 86.0171 38.2487 85.7726 38.8357 85.6259C38.6889 85.5607 38.5585 85.4793 38.4281 85.3652C38.0205 85.0392 37.8249 84.6318 37.8249 84.1429C37.8249 83.6051 38.1346 83.1487 38.7705 82.7739C39.0313 82.5946 39.3411 82.4643 39.6672 82.3991C39.1128 82.2524 38.64 82.0405 38.2487 81.7472C37.5477 81.242 37.189 80.5412 37.189 79.6611C37.189 78.7322 37.5477 77.9988 38.2324 77.461C38.9335 76.9232 39.8628 76.6624 41.053 76.6624L41.6073 76.6787L43.4333 76.7276C43.9714 76.7276 44.4605 76.7276 44.917 76.7276C45.3735 76.7276 45.6507 76.7276 45.7648 76.7276C45.7322 76.9395 45.7159 77.1188 45.7159 77.2654C45.7159 77.4284 45.7322 77.6077 45.7648 77.8358C45.667 77.7869 45.5039 77.7381 45.2757 77.7055C45.0474 77.6892 44.8192 77.6729 44.5909 77.6566L43.9225 77.624C44.5746 78.1781 44.9007 78.83 44.9007 79.5633C44.9007 80.476 44.5583 81.1931 43.8572 81.7309C43.1725 82.2524 42.2269 82.5294 41.053 82.5294C40.6128 82.5294 40.303 82.562 40.14 82.6435C39.9769 82.725 39.8954 82.8717 39.8954 83.0673ZM41.1019 77.5262C40.6454 77.5262 40.2867 77.7055 40.0422 78.0803C39.8139 78.4225 39.6998 78.9603 39.6998 79.6611C39.6998 80.313 39.8139 80.8182 40.0259 81.1442C40.2378 81.4864 40.5802 81.6494 41.0041 81.6494C41.4769 81.6494 41.8193 81.4701 42.0638 81.1116C42.2921 80.753 42.4062 80.2315 42.4062 79.5307C42.4062 78.8789 42.2921 78.3736 42.0801 78.0314C41.8519 77.7055 41.5258 77.5262 41.0856 77.5262H41.1019ZM38.9335 87.3208C38.9335 87.9564 39.1292 88.4291 39.5367 88.755C39.9443 89.0809 40.5313 89.2439 41.3139 89.2439C42.0149 89.2439 42.5856 89.0809 42.9931 88.7387C43.4007 88.3965 43.5964 87.9238 43.5964 87.3208C43.5964 86.7993 43.4497 86.4408 43.1399 86.2126C42.8301 85.9845 42.3247 85.8867 41.6236 85.8867H39.8954L39.6183 85.8704C39.4226 85.9845 39.2596 86.1963 39.1292 86.4734C38.9987 86.7504 38.9335 87.0438 38.9335 87.3208ZM48.1941 83.7843V81.519V79.27C48.1777 78.6181 48.1614 78.1455 48.1288 77.8195C48.1125 77.5099 48.0799 77.1839 48.031 76.8743C48.4223 76.8906 48.8788 76.9069 49.3842 76.9069C49.8896 76.9069 50.3625 76.8906 50.7537 76.8743C50.7048 77.3143 50.6722 77.7055 50.6396 78.0151L50.5744 79.0744C50.7864 78.6507 50.9983 78.2759 51.2266 77.9662C51.8624 77.0862 52.5635 76.6624 53.3624 76.6624C53.4276 76.6624 53.5254 76.6624 53.6232 76.6624C53.7047 76.6624 53.8026 76.6787 53.8841 76.695C53.8352 77.2002 53.8026 77.6403 53.7863 78.0151C53.7699 78.3899 53.7699 78.83 53.7863 79.3515L53.5743 79.4656C53.3787 79.3352 53.1993 79.2537 53.02 79.1885C52.8569 79.1396 52.6613 79.107 52.4493 79.107C51.8787 79.107 51.4385 79.3352 51.145 79.7752C50.8679 80.2152 50.7048 80.8834 50.7048 81.7472L50.7211 83.7843C50.7374 84.4362 50.7537 84.9088 50.7701 85.2348C50.8027 85.5607 50.8353 85.8704 50.8842 86.1963C50.4603 86.1637 49.9875 86.1474 49.4657 86.1474C48.9277 86.1474 48.4549 86.1637 48.031 86.1963C48.0799 85.8704 48.1125 85.5607 48.1451 85.2185C48.1614 84.9088 48.1777 84.4362 48.1941 83.7843ZM58.1557 86.4245C57.3242 86.4245 56.6394 86.1637 56.1177 85.6585C55.596 85.1533 55.3351 84.5177 55.3351 83.7191C55.3351 83.0347 55.5471 82.4805 55.971 82.0568C56.3949 81.6168 57.0796 81.2746 57.9926 80.9975L60.0958 80.3945C60.373 80.313 60.5686 80.1826 60.6828 80.0197C60.7969 79.8567 60.8295 79.6611 60.7806 79.4004C60.7154 79.0092 60.5523 78.6833 60.2589 78.4388C59.8839 78.1129 59.3784 77.9336 58.7426 77.9336C57.9926 77.9336 57.259 78.2107 56.509 78.7648L56.297 77.901C57.2916 77.0699 58.4328 76.6624 59.7045 76.6624C60.8947 76.6624 61.8077 76.8906 62.4109 77.3958C63.0305 77.8684 63.3403 78.5855 63.3403 79.5307V84.697C63.3403 84.974 63.4055 85.1859 63.5522 85.3326C63.6989 85.4792 63.9272 85.5444 64.2044 85.5444H64.3674V86.0008C63.7642 86.2778 63.1609 86.4245 62.5577 86.4245C62.0523 86.4245 61.6284 86.2452 61.3349 85.903C61.1393 85.6748 60.9925 85.3815 60.911 85.0392C60.8132 85.1859 60.6991 85.3163 60.5849 85.4467C59.9491 86.0985 59.1502 86.4245 58.1557 86.4245ZM60.8132 83.1813V81.0627L59.9817 81.3071C59.3621 81.4864 58.9056 81.7635 58.5959 82.1383C58.3024 82.5294 58.1394 83.0184 58.1394 83.5888C58.1394 84.1103 58.2535 84.5014 58.4491 84.7622C58.6448 85.0229 58.9382 85.1533 59.3458 85.1533C59.786 85.1533 60.1447 84.9577 60.4056 84.5503C60.6501 84.1755 60.7806 83.7354 60.8132 83.1813ZM71.2476 86.0334C70.5791 86.2941 69.927 86.4245 69.2585 86.4245C68.3944 86.4245 67.7749 86.2289 67.3836 85.8541C67.0086 85.463 66.813 84.8274 66.813 83.9636V77.9499L66.4217 77.9662C66.2097 77.9662 65.9978 77.9825 65.8021 78.0151C65.6065 78.0314 65.4761 78.064 65.4108 78.0803C65.4435 77.8195 65.4761 77.6077 65.4761 77.4284C65.4761 77.2491 65.4435 77.0373 65.4108 76.7765C65.4924 76.8091 65.6228 76.8417 65.8184 76.858C66.0141 76.8906 66.226 76.9069 66.438 76.9069L66.813 76.9232V76.3039C66.813 76.092 66.7967 75.8313 66.7641 75.5053C66.7315 75.1794 66.6988 74.8697 66.6499 74.5927C67.2206 74.3808 67.726 74.1852 68.1336 74.006L69.2748 73.4845L69.5194 73.6474C69.4705 73.9408 69.4379 74.3808 69.4053 74.9838C69.3727 75.6031 69.3401 76.2387 69.3401 76.9232H69.6498C69.9433 76.9232 70.2205 76.9069 70.5139 76.8743C70.7911 76.8417 71.003 76.8091 71.1335 76.7602C71.0846 77.021 71.0683 77.2328 71.0683 77.4284C71.0683 77.6077 71.0846 77.8358 71.1335 78.0966C71.003 78.064 70.7911 78.0151 70.4976 77.9825C70.2042 77.9499 69.927 77.9336 69.6498 77.9336H69.3238V84.1429C69.3238 84.5992 69.4216 84.9577 69.6009 85.1859C69.7803 85.4304 70.0411 85.5444 70.3998 85.5444C70.7422 85.5444 71.0193 85.4793 71.2476 85.3978V86.0334ZM73.7258 83.7843L73.7421 81.519L73.7258 79.27C73.7095 78.6181 73.6932 78.1455 73.6769 77.8195C73.6606 77.5099 73.6117 77.1839 73.579 76.8743C73.9866 76.8906 74.4594 76.9069 74.9812 76.9069C75.5192 76.9069 76.0083 76.8906 76.4159 76.8743C76.367 77.1839 76.3344 77.5099 76.3181 77.8195C76.2855 78.1455 76.2692 78.6181 76.2692 79.27L76.2529 81.5353L76.2692 83.7843C76.2692 84.4362 76.2855 84.9088 76.3181 85.2348C76.3344 85.5607 76.367 85.8704 76.4159 86.1963C76.0083 86.1637 75.5355 86.1474 74.9975 86.1474C74.4594 86.1474 73.9866 86.1637 73.579 86.1963C73.6117 85.8704 73.6606 85.5607 73.6769 85.2185C73.7095 84.9088 73.7095 84.4362 73.7258 83.7843ZM74.9975 71.8221C75.4214 71.8221 75.7801 71.9688 76.0572 72.2622C76.3507 72.5555 76.4974 72.8978 76.4974 73.3215C76.4974 73.7452 76.3507 74.1038 76.0572 74.3808C75.7801 74.6742 75.4214 74.8208 74.9975 74.8208C74.5736 74.8208 74.2149 74.6742 73.9377 74.3808C73.6443 74.1038 73.4975 73.7452 73.4975 73.3215C73.4975 72.8978 73.6443 72.5555 73.9377 72.2622C74.2149 71.9688 74.5736 71.8221 74.9975 71.8221ZM79.481 83.7843V81.519V79.27C79.4647 78.6181 79.4484 78.1455 79.4321 77.8195C79.3995 77.5099 79.3669 77.1839 79.318 76.8743C79.7093 76.8906 80.1658 76.9069 80.6712 76.9069C81.1766 76.9069 81.6494 76.8906 82.0407 76.8743C81.9918 77.3143 81.9429 77.7055 81.9103 78.0151L81.894 78.3085C82.0407 78.0966 82.22 77.901 82.3994 77.7381C83.1168 77.021 83.9646 76.6624 84.9265 76.6624C85.8558 76.6624 86.5895 76.9558 87.1438 77.5588C87.6818 78.1618 87.959 78.9929 87.959 80.0197V81.5353V83.7843C87.9753 84.4688 87.9916 84.974 88.0079 85.2837C88.0242 85.6096 88.0568 85.9193 88.0894 86.1963C87.6655 86.1637 87.1927 86.1474 86.6547 86.1474C86.1167 86.1474 85.6438 86.1637 85.2199 86.1963C85.2852 85.8704 85.3504 85.5607 85.3667 85.2348C85.3993 84.9088 85.4156 84.4362 85.4319 83.7843L85.4482 81.519L85.4319 80.3456C85.4319 79.6774 85.3015 79.1559 85.0243 78.8137C84.7471 78.4714 84.3395 78.2922 83.7852 78.2922C83.1983 78.2922 82.7581 78.4877 82.4483 78.8789C82.1548 79.27 82.0081 79.8567 82.0081 80.639V81.5353V83.7843C82.0244 84.4362 82.0407 84.9088 82.0733 85.2348C82.0896 85.5607 82.1222 85.8704 82.1711 86.1963C81.7635 86.1637 81.2744 86.1474 80.7527 86.1474C80.2147 86.1474 79.7256 86.1637 79.3017 86.1963C79.3669 85.8704 79.3995 85.5607 79.4321 85.2185C79.4484 84.9088 79.4647 84.4362 79.481 83.7843ZM93.0784 83.0673C93.0784 83.2954 93.1762 83.491 93.3881 83.6377C93.5838 83.7843 93.8446 83.8658 94.1381 83.8658H95.5239C96.6815 83.8658 97.5456 84.0777 98.1162 84.5177C98.6706 84.9414 98.964 85.6096 98.964 86.506C98.964 87.5164 98.5075 88.3802 97.6271 89.0972C96.7304 89.798 95.6381 90.1403 94.3664 90.1403C93.0458 90.1403 92.0349 89.9447 91.3339 89.5373C90.6328 89.1298 90.2741 88.5594 90.2741 87.8098C90.2741 87.2068 90.4208 86.7341 90.7143 86.3756C91.0078 86.0171 91.448 85.7726 92.0349 85.6259C91.8882 85.5607 91.7415 85.4793 91.611 85.3652C91.2197 85.0392 91.0078 84.6318 91.0078 84.1429C91.0078 83.6051 91.3339 83.1487 91.9534 82.7739C92.2306 82.5946 92.524 82.4643 92.8501 82.3991C92.3121 82.2524 91.8393 82.0405 91.4317 81.7472C90.7469 81.242 90.3882 80.5412 90.3882 79.6611C90.3882 78.7322 90.7469 77.9988 91.4317 77.461C92.1164 76.9232 93.0621 76.6624 94.2359 76.6624L94.8066 76.6787L96.6326 76.7276C97.1543 76.7276 97.6597 76.7276 98.1162 76.7276C98.5727 76.7276 98.8499 76.7276 98.964 76.7276C98.9314 76.9395 98.9151 77.1188 98.9151 77.2654C98.9151 77.4284 98.9314 77.6077 98.964 77.8358C98.8662 77.7869 98.7032 77.7381 98.4749 77.7055C98.2467 77.6892 98.0184 77.6729 97.7902 77.6566L97.1217 77.624C97.7739 78.1781 98.0999 78.83 98.0999 79.5633C98.0999 80.476 97.7412 81.1931 97.0565 81.7309C96.3717 82.2524 95.4261 82.5294 94.2522 82.5294C93.7957 82.5294 93.5023 82.562 93.3392 82.6435C93.1599 82.725 93.0784 82.8717 93.0784 83.0673ZM94.3011 77.5262C93.8283 77.5262 93.486 77.7055 93.2414 78.0803C93.0131 78.4225 92.8827 78.9603 92.8827 79.6611C92.8827 80.313 92.9968 80.8182 93.2251 81.1442C93.437 81.4864 93.7631 81.6494 94.2033 81.6494C94.6598 81.6494 95.0185 81.4701 95.2468 81.1116C95.475 80.753 95.6054 80.2315 95.6054 79.5307C95.6054 78.8789 95.4913 78.3736 95.2631 78.0314C95.0511 77.7055 94.725 77.5262 94.2848 77.5262H94.3011ZM92.1327 87.3208C92.1327 87.9564 92.3284 88.4291 92.736 88.755C93.1273 89.0809 93.7305 89.2439 94.4968 89.2439C95.2142 89.2439 95.7685 89.0809 96.1761 88.7387C96.5837 88.3965 96.7956 87.9238 96.7956 87.3208C96.7956 86.7993 96.6326 86.4408 96.3228 86.2126C96.0294 85.9845 95.5239 85.8867 94.8229 85.8867H93.0947L92.8175 85.8704C92.6219 85.9845 92.4588 86.1963 92.3284 86.4734C92.198 86.7504 92.1327 87.0438 92.1327 87.3208ZM108.746 83.8984C108.763 82.6109 108.779 81.1279 108.779 79.4982C108.779 77.8521 108.763 76.3854 108.746 75.0816C108.73 74.4134 108.697 73.9245 108.681 73.5985C108.665 73.2889 108.632 72.9792 108.6 72.6696C109.023 72.7511 109.529 72.8 110.116 72.8326C110.703 72.8652 111.208 72.8652 111.632 72.8326C112.333 72.7837 112.985 72.7511 113.572 72.7185C114.159 72.6859 114.534 72.6696 114.697 72.6696C116.751 72.6696 118.349 73.24 119.458 74.3645C120.55 75.489 121.105 77.1025 121.105 79.2048C121.105 81.4864 120.485 83.2302 119.23 84.4688C117.991 85.6911 116.197 86.3104 113.882 86.3104C113.686 86.3104 113.295 86.2941 112.676 86.2615C112.056 86.2289 111.404 86.1963 110.703 86.1474C110.426 86.1311 110.067 86.1311 109.659 86.1637C109.252 86.1963 108.909 86.2452 108.6 86.3104C108.632 86.0008 108.665 85.6911 108.681 85.3652C108.697 85.0555 108.73 84.5666 108.746 83.8984ZM111.648 84.86C112.219 84.9251 112.839 84.9414 113.507 84.9414C114.958 84.9414 116.067 84.4362 116.817 83.4421C117.567 82.448 117.958 80.9975 117.958 79.0744C117.958 77.4284 117.567 76.1898 116.8 75.3261C116.034 74.4786 114.909 74.0386 113.442 74.0386C112.806 74.0386 112.203 74.0712 111.648 74.1201C111.616 75.652 111.583 77.4447 111.583 79.4819C111.583 81.5353 111.616 83.328 111.648 84.86ZM124.056 83.7843V81.519V79.27C124.039 78.6181 124.023 78.1455 124.007 77.8195C123.974 77.5099 123.941 77.1839 123.893 76.8743C124.316 76.8906 124.789 76.9069 125.311 76.9069C125.849 76.9069 126.322 76.8906 126.746 76.8743C126.697 77.1839 126.664 77.5099 126.648 77.8195C126.615 78.1455 126.599 78.6181 126.583 79.27V81.5353V83.7843C126.599 84.4362 126.615 84.9088 126.648 85.2348C126.664 85.5607 126.697 85.8704 126.746 86.1963C126.322 86.1637 125.849 86.1474 125.327 86.1474C124.789 86.1474 124.316 86.1637 123.893 86.1963C123.941 85.8704 123.974 85.5607 124.007 85.2185C124.023 84.9088 124.039 84.4362 124.056 83.7843ZM125.327 71.8221C125.735 71.8221 126.094 71.9688 126.387 72.2622C126.68 72.5555 126.827 72.8978 126.827 73.3215C126.827 73.7452 126.68 74.1038 126.387 74.3808C126.094 74.6742 125.735 74.8208 125.327 74.8208C124.903 74.8208 124.545 74.6742 124.251 74.3808C123.958 74.1038 123.811 73.7452 123.811 73.3215C123.811 72.8978 123.958 72.5555 124.251 72.2622C124.545 71.9688 124.903 71.8221 125.327 71.8221ZM134.523 79.0581C134.376 78.5855 134.115 78.2107 133.756 77.9336C133.398 77.6729 132.974 77.5262 132.501 77.5262C132.093 77.5262 131.751 77.6403 131.49 77.8521C131.213 78.0803 131.082 78.341 131.082 78.667C131.082 78.9929 131.213 79.2863 131.474 79.4982C131.735 79.71 132.207 79.9382 132.892 80.1663C133.87 80.5086 134.571 80.8997 134.979 81.356C135.387 81.8124 135.599 82.3991 135.599 83.1161C135.599 84.0777 135.273 84.86 134.637 85.4792C133.985 86.1148 133.169 86.4245 132.191 86.4245C131.686 86.4245 131.164 86.343 130.626 86.2126C130.088 86.066 129.648 85.8867 129.289 85.6585C129.371 85.3326 129.436 85.0555 129.485 84.8274C129.534 84.5829 129.566 84.3058 129.599 83.9799L129.99 83.9636C130.3 84.4851 130.659 84.8925 131.034 85.1533C131.425 85.4141 131.832 85.5444 132.256 85.5444C132.713 85.5444 133.088 85.4304 133.381 85.2185C133.691 85.0066 133.838 84.7296 133.838 84.4036C133.838 84.0288 133.707 83.7354 133.43 83.5073C133.186 83.2791 132.697 83.051 131.995 82.8065C131.017 82.4643 130.332 82.0731 129.909 81.6168C129.501 81.1605 129.289 80.5575 129.289 79.8078C129.289 78.9115 129.615 78.1618 130.235 77.5588C130.871 76.9558 131.669 76.6624 132.615 76.6624C133.088 76.6624 133.528 76.7113 133.952 76.8254C134.376 76.9395 134.832 77.1188 135.338 77.3795C135.224 77.6892 135.142 77.9662 135.061 78.1944C134.995 78.4388 134.93 78.7159 134.865 79.0581H134.523ZM138.158 83.7843L138.175 81.519L138.158 79.27C138.142 78.6181 138.126 78.1455 138.109 77.8195C138.093 77.5099 138.06 77.1839 138.012 76.8743C138.403 76.8906 138.843 76.9069 139.348 76.9069C139.87 76.9069 140.327 76.8906 140.734 76.8743C140.669 77.3143 140.636 77.7055 140.604 78.0151L140.555 79.0744C140.751 78.6507 140.963 78.2759 141.191 77.9662C141.827 77.0862 142.544 76.6624 143.327 76.6624C143.408 76.6624 143.49 76.6624 143.587 76.6624C143.685 76.6624 143.783 76.6787 143.848 76.695C143.816 77.2002 143.783 77.6403 143.767 78.0151C143.751 78.3899 143.751 78.83 143.751 79.3515L143.555 79.4656C143.343 79.3352 143.164 79.2537 143.001 79.1885C142.838 79.1396 142.642 79.107 142.43 79.107C141.843 79.107 141.419 79.3352 141.126 79.7752C140.832 80.2152 140.685 80.8834 140.685 81.7472L140.702 83.7843C140.702 84.4362 140.734 84.9088 140.751 85.2348C140.767 85.5607 140.8 85.8704 140.848 86.1963C140.441 86.1637 139.968 86.1474 139.446 86.1474C138.892 86.1474 138.419 86.1637 138.012 86.1963C138.06 85.8704 138.093 85.5607 138.109 85.2185C138.142 84.9088 138.142 84.4362 138.158 83.7843ZM148.576 79.27L148.56 81.5353V82.8228C148.56 83.4747 148.691 83.9636 148.951 84.2896C149.212 84.6155 149.587 84.7785 150.093 84.7785C150.712 84.7785 151.169 84.5829 151.495 84.1755C151.805 83.7843 151.968 83.1976 151.968 82.4317V81.5353L151.951 79.27C151.935 78.6181 151.919 78.1292 151.902 77.8195C151.886 77.4936 151.837 77.1839 151.788 76.8743C152.212 76.8906 152.685 76.9069 153.207 76.9069C153.745 76.9069 154.218 76.8906 154.641 76.8743C154.527 78.504 154.478 79.3026 154.478 79.27V83.7843C154.478 83.7517 154.527 84.5503 154.641 86.1963C154.25 86.1637 153.794 86.1474 153.288 86.1474C152.767 86.1474 152.326 86.1637 151.919 86.1963C151.968 85.74 152.017 85.3652 152.033 85.0392L152.049 84.6644C151.886 84.9088 151.707 85.137 151.511 85.3489C150.81 86.0659 150.011 86.4245 149.098 86.4245C148.12 86.4245 147.37 86.1474 146.848 85.6096C146.31 85.0718 146.049 84.3058 146.049 83.3117V81.519L146.033 79.27C146.033 78.6181 146.017 78.1455 146 77.8195C145.968 77.5099 145.935 77.1839 145.886 76.8743C146.294 76.8906 146.767 76.9069 147.305 76.9069C147.843 76.9069 148.316 76.8906 148.739 76.8743C148.691 77.1839 148.642 77.5099 148.625 77.8358C148.609 78.1455 148.593 78.6181 148.576 79.27ZM157.217 79.27C157.217 78.667 157.201 78.2107 157.169 77.901C157.152 77.5751 157.12 77.2328 157.071 76.8743C157.462 76.8906 157.919 76.9069 158.424 76.9069C158.929 76.9069 159.386 76.8906 159.793 76.8743C159.745 77.1513 159.712 77.4447 159.679 77.7543L159.647 78.064L159.728 77.9662C160.413 77.0862 161.326 76.6624 162.5 76.6624C163.657 76.6624 164.587 77.0699 165.272 77.901C165.956 78.7159 166.282 79.8404 166.282 81.2583C166.282 82.8391 165.956 84.094 165.272 85.0229C164.587 85.9519 163.674 86.4245 162.5 86.4245C161.342 86.4245 160.429 86.0008 159.761 85.1533L159.777 87.8098C159.777 88.3965 159.793 88.8528 159.826 89.1787C159.842 89.4884 159.875 89.8469 159.924 90.2055C159.516 90.1892 159.043 90.1729 158.505 90.1729C157.967 90.1729 157.478 90.1892 157.071 90.2055C157.12 89.8469 157.152 89.4884 157.169 89.1787C157.201 88.8528 157.217 88.3965 157.217 87.8098L157.234 83.5399L157.217 79.27ZM161.522 85.1533C162.19 85.1533 162.679 84.8437 163.022 84.2244C163.348 83.6051 163.527 82.6761 163.527 81.4538C163.527 80.2804 163.364 79.4167 163.054 78.8137C162.761 78.2107 162.304 77.9173 161.685 77.9173C161.033 77.9173 160.543 78.227 160.217 78.83C159.875 79.433 159.712 80.3456 159.712 81.5353C159.712 82.725 159.875 83.6377 160.168 84.2407C160.478 84.8437 160.935 85.1533 161.522 85.1533ZM173.668 86.0334C173.016 86.2941 172.347 86.4245 171.695 86.4245C170.831 86.4245 170.195 86.2289 169.82 85.8541C169.445 85.463 169.25 84.8274 169.25 83.9636V77.9499L168.858 77.9662C168.63 77.9662 168.434 77.9825 168.239 78.0151C168.043 78.0314 167.913 78.064 167.848 78.0803C167.88 77.8195 167.896 77.6077 167.896 77.4284C167.896 77.2491 167.88 77.0373 167.848 76.7765C167.913 76.8091 168.059 76.8417 168.255 76.858C168.451 76.8906 168.663 76.9069 168.858 76.9069L169.25 76.9232V76.3039C169.25 76.092 169.233 75.8313 169.201 75.5053C169.168 75.1794 169.119 74.8697 169.07 74.5927C169.657 74.3808 170.146 74.1852 170.57 74.006L171.712 73.4845L171.94 73.6474C171.907 73.9408 171.875 74.3808 171.842 74.9838C171.793 75.6031 171.777 76.2387 171.777 76.9232H172.086C172.364 76.9232 172.657 76.9069 172.934 76.8743C173.228 76.8417 173.423 76.8091 173.57 76.7602C173.521 77.021 173.505 77.2328 173.505 77.4284C173.505 77.6077 173.521 77.8358 173.57 78.0966C173.423 78.064 173.228 78.0151 172.934 77.9825C172.641 77.9499 172.364 77.9336 172.07 77.9336H171.76V84.1429C171.76 84.5992 171.858 84.9577 172.038 85.1859C172.217 85.4304 172.478 85.5444 172.836 85.5444C173.163 85.5444 173.456 85.4793 173.668 85.3978V86.0334ZM176.162 83.7843V81.519V79.27C176.146 78.6181 176.13 78.1455 176.114 77.8195C176.081 77.5099 176.048 77.1839 175.999 76.8743C176.423 76.8906 176.896 76.9069 177.418 76.9069C177.956 76.9069 178.429 76.8906 178.853 76.8743C178.804 77.1839 178.771 77.5099 178.755 77.8195C178.722 78.1455 178.706 78.6181 178.69 79.27V81.5353V83.7843C178.706 84.4362 178.722 84.9088 178.755 85.2348C178.771 85.5607 178.804 85.8704 178.853 86.1963C178.429 86.1637 177.956 86.1474 177.434 86.1474C176.896 86.1474 176.423 86.1637 175.999 86.1963C176.048 85.8704 176.081 85.5607 176.114 85.2185C176.13 84.9088 176.146 84.4362 176.162 83.7843ZM177.434 71.8221C177.842 71.8221 178.2 71.9688 178.494 72.2622C178.787 72.5555 178.934 72.8978 178.934 73.3215C178.934 73.7452 178.787 74.1038 178.494 74.3808C178.2 74.6742 177.842 74.8208 177.434 74.8208C177.01 74.8208 176.652 74.6742 176.358 74.3808C176.065 74.1038 175.934 73.7452 175.934 73.3215C175.934 72.8978 176.065 72.5555 176.358 72.2622C176.652 71.9688 177.01 71.8221 177.434 71.8221ZM182.244 79.7589C181.885 78.8463 181.641 78.1944 181.494 77.8195C181.331 77.4284 181.2 77.1188 181.07 76.8906C181.543 76.9069 182.048 76.9232 182.635 76.9232C183.206 76.9232 183.727 76.9069 184.2 76.8906L185.309 80.7204L185.586 81.5842L186.222 83.491H186.238L186.939 81.6005L187.347 80.476C187.265 80.6879 187.298 80.5575 187.445 80.0849C187.575 79.5959 187.901 78.5366 188.423 76.8906C188.667 76.9069 188.961 76.9232 189.271 76.9232C189.597 76.9232 189.874 76.9069 190.135 76.8906C190.021 77.1025 189.89 77.3958 189.727 77.7869C189.564 78.1781 189.303 78.83 188.928 79.7589L188.244 81.5353C187.542 83.3932 186.988 84.9577 186.581 86.2126C186.173 86.1963 185.814 86.18 185.521 86.18C185.211 86.18 184.852 86.1963 184.445 86.2126C184.07 84.9577 183.548 83.3932 182.88 81.5516L182.244 79.7589Z" clip-rule="evenodd" fill-rule="evenodd"></path>
<path fill="#231F20" d="M196.412 86.4244C194.961 86.4244 193.787 85.9844 192.939 85.137C192.075 84.2732 191.651 83.0998 191.651 81.6168C191.651 80.1011 192.058 78.8951 192.89 77.9988C193.721 77.1024 194.846 76.6624 196.249 76.6624C197.504 76.6624 198.498 77.0535 199.232 77.8684C199.819 78.5203 200.178 79.3677 200.292 80.4108C200.324 80.6878 200.341 80.9649 200.357 81.2256C200.357 81.5027 200.357 81.6819 200.324 81.796V81.8123C200.096 81.7634 199.672 81.7308 199.085 81.6982C198.498 81.6656 197.879 81.6493 197.259 81.6493H194.439C194.504 82.7087 194.732 83.5235 195.14 84.1102C195.613 84.7947 196.314 85.137 197.243 85.137C197.732 85.137 198.189 85.0718 198.613 84.9251C199.053 84.7947 199.444 84.5992 199.803 84.3221L199.982 84.534L199.477 85.6585C199.004 85.9029 198.515 86.0985 197.993 86.2289C197.471 86.3593 196.95 86.4244 196.412 86.4244ZM197.537 80.6389V80.2804C197.537 79.3677 197.422 78.6832 197.162 78.2269C196.917 77.7543 196.542 77.5261 196.053 77.5261H196.069C195.531 77.5261 195.107 77.8358 194.83 78.4388C194.586 78.9603 194.455 79.6937 194.439 80.6389H197.537ZM212.226 80.1826V74.0385C211.558 74.0548 210.889 74.0711 210.237 74.1037C209.471 74.1363 208.966 74.1852 208.688 74.2341C208.737 74.0059 208.754 73.7452 208.754 73.4518C208.754 73.1585 208.737 72.8814 208.688 72.6533C209.096 72.7021 209.764 72.751 210.677 72.7999C211.607 72.8325 212.471 72.8488 213.302 72.8488H213.645H213.987C214.819 72.8488 215.683 72.8325 216.596 72.7999C217.509 72.751 218.177 72.7021 218.585 72.6533C218.552 72.8814 218.52 73.1585 218.52 73.4518C218.52 73.7452 218.552 74.0059 218.585 74.2341C218.324 74.1852 217.818 74.1363 217.036 74.1037C216.384 74.0711 215.715 74.0548 215.047 74.0385V80.1826C215.047 81.633 215.063 82.7576 215.079 83.5561C215.112 84.3547 215.145 85.2347 215.21 86.18C214.753 86.1637 214.232 86.1474 213.645 86.1474C213.058 86.1474 212.536 86.1637 212.063 86.18C212.128 85.2347 212.177 84.3547 212.194 83.5561C212.21 82.7576 212.226 81.633 212.226 80.1826ZM225.057 86.4244C223.59 86.4244 222.432 85.9844 221.585 85.137C220.721 84.2732 220.297 83.0998 220.297 81.6168C220.297 80.1011 220.704 78.8951 221.536 77.9988C222.367 77.1024 223.476 76.6624 224.894 76.6624C226.15 76.6624 227.144 77.0535 227.878 77.8684C228.465 78.5203 228.824 79.3677 228.938 80.4108C228.97 80.6878 228.987 80.9649 228.987 81.2256C229.003 81.5027 228.987 81.6819 228.97 81.796V81.8123C228.742 81.7634 228.318 81.7308 227.731 81.6982C227.128 81.6656 226.525 81.6493 225.905 81.6493H223.085C223.133 82.7087 223.378 83.5235 223.786 84.1102C224.258 84.7947 224.96 85.137 225.889 85.137C226.378 85.137 226.834 85.0718 227.258 84.9251C227.699 84.7947 228.09 84.5992 228.449 84.3221L228.628 84.534L228.122 85.6585C227.65 85.9029 227.144 86.0985 226.622 86.2289C226.117 86.3593 225.595 86.4244 225.057 86.4244ZM226.182 80.6389V80.2804C226.182 79.3677 226.052 78.6832 225.807 78.2269C225.563 77.7543 225.188 77.5261 224.699 77.5261H224.715C224.161 77.5261 223.753 77.8358 223.476 78.4388C223.231 78.9603 223.101 79.6937 223.068 80.6389H226.182ZM238.736 84.5829C238.638 84.7784 238.557 84.9577 238.492 85.1044C238.426 85.251 238.361 85.4303 238.28 85.6422C237.921 85.8866 237.53 86.0822 237.073 86.2126C236.649 86.3593 236.193 86.4244 235.769 86.4244C234.236 86.4244 232.997 85.9844 232.019 85.1207C231.057 84.2569 230.584 83.1324 230.584 81.7634C230.584 80.1989 231.057 78.944 231.986 78.0314C232.916 77.1187 234.171 76.6624 235.753 76.6624C236.34 76.6624 236.894 76.7276 237.465 76.8905C238.019 77.0535 238.524 77.2817 238.981 77.575C238.834 77.901 238.72 78.1943 238.622 78.4388C238.524 78.6832 238.41 78.9929 238.296 79.3514H237.905C237.807 78.781 237.579 78.341 237.236 78.0314C236.894 77.7217 236.437 77.575 235.899 77.575C235.1 77.575 234.481 77.901 234.041 78.5855C233.584 79.2536 233.372 80.1989 233.372 81.4049C233.372 82.6761 233.617 83.6376 234.122 84.2895C234.628 84.9414 235.378 85.2673 236.356 85.2673C236.731 85.2673 237.106 85.2021 237.465 85.0555C237.807 84.8925 238.133 84.6806 238.394 84.4036L238.736 84.5829ZM241.475 83.7843L241.492 78.9277C241.492 76.8905 241.492 75.2608 241.475 74.0385C241.459 73.4192 241.443 72.9466 241.426 72.637C241.41 72.311 241.377 71.9688 241.328 71.6428C241.752 71.6754 242.225 71.6754 242.747 71.6754C243.301 71.6754 243.774 71.6754 244.198 71.6428C244.149 71.9851 244.116 72.311 244.1 72.637C244.084 72.9466 244.068 73.4192 244.051 74.0385L244.019 78.1454L244.41 77.7217C245.144 77.0046 245.991 76.6624 246.953 76.6624C247.866 76.6624 248.616 76.9557 249.154 77.5587C249.692 78.1617 249.97 78.9929 249.97 80.0196V81.5353V83.7843C249.986 84.4688 250.002 84.974 250.018 85.2836C250.035 85.6096 250.067 85.9029 250.1 86.18C249.676 86.1637 249.203 86.1474 248.682 86.1474C248.127 86.1474 247.654 86.1637 247.23 86.18C247.312 85.8703 247.361 85.5444 247.377 85.2347C247.41 84.9088 247.426 84.4362 247.442 83.7843L247.459 81.519V80.3456C247.459 79.6774 247.312 79.1559 247.035 78.8136C246.758 78.4714 246.35 78.2921 245.796 78.2921C245.209 78.2921 244.769 78.4877 244.475 78.8788C244.165 79.2699 244.019 79.8566 244.019 80.6389L244.051 83.7843C244.051 84.371 244.068 84.811 244.084 85.137C244.1 85.4466 244.133 85.8051 244.198 86.18C243.774 86.1637 243.301 86.1474 242.763 86.1474C242.225 86.1474 241.736 86.1637 241.328 86.18C241.361 85.854 241.41 85.5281 241.426 85.2021C241.443 84.8762 241.459 84.4036 241.475 83.7843ZM252.855 83.7843L252.872 81.519L252.855 79.2699C252.839 78.6343 252.823 78.1454 252.806 77.8195C252.774 77.5098 252.741 77.1839 252.692 76.8742C253.084 76.8905 253.54 76.9068 254.045 76.9068C254.567 76.9068 255.024 76.8905 255.415 76.8742C255.366 77.3143 255.317 77.7054 255.285 78.0151L255.268 78.3084C255.431 78.0965 255.594 77.9173 255.774 77.7217C256.507 77.0046 257.355 76.6624 258.301 76.6624C259.246 76.6624 259.964 76.9557 260.518 77.5587C261.056 78.1617 261.333 78.9929 261.333 80.0196V81.5353L261.35 83.7843C261.35 84.4688 261.366 84.974 261.382 85.2836C261.398 85.6096 261.431 85.9029 261.464 86.18C261.04 86.1637 260.567 86.1474 260.045 86.1474C259.491 86.1474 259.018 86.1637 258.594 86.18C258.676 85.8703 258.725 85.5444 258.741 85.2347C258.774 84.9088 258.79 84.4362 258.806 83.7843L258.822 81.519V80.3456C258.822 79.6774 258.676 79.1559 258.399 78.8136C258.121 78.4714 257.714 78.2921 257.159 78.2921C256.573 78.2921 256.132 78.4877 255.823 78.8788C255.529 79.2699 255.382 79.8566 255.382 80.6389V81.5353L255.399 83.7843C255.399 84.4362 255.415 84.9088 255.448 85.2347C255.464 85.5444 255.496 85.8703 255.562 86.18C255.138 86.1637 254.665 86.1474 254.127 86.1474C253.589 86.1474 253.1 86.1637 252.692 86.18C252.741 85.8703 252.774 85.5444 252.806 85.2347C252.823 84.9088 252.839 84.4362 252.855 83.7843ZM268.474 86.4244C266.974 86.4244 265.8 86.017 264.936 85.2021C264.072 84.4036 263.632 83.3117 263.632 81.9264C263.632 80.2967 264.072 79.0092 264.936 78.0802C265.817 77.135 266.991 76.6624 268.474 76.6624C269.958 76.6624 271.132 77.0535 271.996 77.8684C272.876 78.6832 273.317 79.7752 273.317 81.1604C273.317 82.7902 272.876 84.0613 272.012 85.0066C271.132 85.9518 269.958 86.4244 268.474 86.4244ZM268.393 85.5444C269.094 85.5444 269.616 85.2021 269.974 84.5177C270.349 83.8332 270.512 82.8064 270.512 81.4538C270.512 80.1663 270.349 79.1885 270.023 78.5203C269.681 77.8684 269.192 77.5261 268.54 77.5261C267.838 77.5261 267.317 77.8684 266.958 78.5692C266.599 79.2536 266.42 80.2804 266.42 81.633C266.42 82.9205 266.583 83.8984 266.925 84.5503C267.252 85.2184 267.741 85.5444 268.393 85.5444ZM275.811 83.7843L275.844 78.9277C275.844 76.8905 275.827 75.2608 275.811 74.0385C275.811 73.4192 275.795 72.9466 275.778 72.637C275.746 72.311 275.729 71.9688 275.681 71.6428C276.104 71.6754 276.577 71.6754 277.099 71.6754C277.637 71.6754 278.11 71.6754 278.534 71.6428C278.485 71.9688 278.452 72.311 278.436 72.637C278.42 72.9466 278.403 73.4192 278.387 74.0385L278.371 78.9114L278.387 83.7843C278.403 84.4036 278.42 84.8762 278.436 85.2021C278.452 85.5281 278.485 85.854 278.534 86.18C278.11 86.1637 277.637 86.1474 277.115 86.1474C276.577 86.1474 276.104 86.1637 275.681 86.18C275.729 85.854 275.746 85.5281 275.778 85.2021C275.795 84.8762 275.811 84.4036 275.811 83.7843ZM285.838 86.4244C284.354 86.4244 283.164 86.017 282.3 85.2021C281.436 84.4036 280.996 83.3117 280.996 81.9264C280.996 80.2967 281.436 79.0092 282.3 78.0802C283.18 77.135 284.354 76.6624 285.838 76.6624C287.321 76.6624 288.495 77.0535 289.359 77.8684C290.24 78.6832 290.68 79.7752 290.68 81.1604C290.68 82.7902 290.24 84.0613 289.376 85.0066C288.512 85.9518 287.321 86.4244 285.838 86.4244ZM285.756 85.5444C286.457 85.5444 286.979 85.2021 287.354 84.5177C287.713 83.8332 287.892 82.8064 287.892 81.4538C287.892 80.1663 287.729 79.1885 287.387 78.5203C287.044 77.8684 286.555 77.5261 285.903 77.5261C285.202 77.5261 284.68 77.8684 284.322 78.5692C283.963 79.2536 283.784 80.2804 283.784 81.633C283.784 82.9205 283.947 83.8984 284.289 84.5503C284.615 85.2184 285.104 85.5444 285.756 85.5444ZM295.212 83.0672C295.212 83.2954 295.31 83.4746 295.522 83.6376C295.718 83.7843 295.962 83.8658 296.256 83.8658H297.642C298.816 83.8658 299.68 84.0776 300.234 84.5177C300.805 84.9414 301.082 85.6096 301.082 86.5059C301.082 87.5327 300.642 88.3801 299.745 89.0972C298.865 89.798 297.772 90.1402 296.484 90.1402C295.18 90.1402 294.169 89.9446 293.468 89.5372C292.751 89.1298 292.408 88.5594 292.408 87.8097C292.408 87.2067 292.555 86.7341 292.848 86.3755C293.126 86.017 293.566 85.7726 294.153 85.6259C294.006 85.5607 293.876 85.4792 293.745 85.3651C293.354 85.0392 293.142 84.6317 293.142 84.1428C293.142 83.605 293.468 83.1487 294.088 82.7739C294.365 82.5946 294.658 82.4805 294.984 82.3827C294.43 82.2523 293.957 82.0405 293.566 81.7471C292.865 81.2419 292.522 80.5411 292.522 79.6611C292.522 78.7321 292.865 77.9988 293.566 77.4609C294.251 76.9231 295.196 76.6624 296.37 76.6624L296.941 76.6787L298.75 76.7276C299.288 76.7276 299.778 76.7276 300.234 76.7276C300.691 76.7276 300.984 76.7276 301.098 76.7276C301.066 76.9394 301.049 77.1187 301.049 77.2654C301.049 77.4284 301.066 77.6076 301.098 77.8358C300.984 77.7869 300.821 77.7543 300.593 77.7217C300.364 77.6891 300.136 77.6728 299.924 77.6565L299.256 77.6239C299.892 78.178 300.218 78.8299 300.218 79.5633C300.218 80.4759 299.875 81.193 299.191 81.7308C298.49 82.2523 297.56 82.5294 296.37 82.5294C295.93 82.5294 295.62 82.562 295.457 82.6435C295.294 82.725 295.212 82.8716 295.212 83.0672ZM296.419 77.5261C295.962 77.5261 295.604 77.7054 295.376 78.0802C295.131 78.4225 295.017 78.9603 295.017 79.6611C295.017 80.313 295.131 80.8182 295.343 81.1441C295.571 81.4864 295.897 81.6493 296.321 81.6493H296.337C296.794 81.6493 297.136 81.4701 297.381 81.1115C297.609 80.753 297.723 80.2315 297.723 79.5307C297.723 78.8625 297.625 78.3736 297.397 78.0314C297.169 77.7054 296.843 77.5261 296.419 77.5261ZM294.251 87.3208C294.251 87.9564 294.463 88.429 294.854 88.7549C295.261 89.0809 295.848 89.2439 296.631 89.2439C297.348 89.2439 297.903 89.0809 298.31 88.7387C298.718 88.3964 298.913 87.9238 298.913 87.3208C298.913 86.7993 298.767 86.4407 298.457 86.2126C298.147 85.9844 297.658 85.8703 296.957 85.8703H295.229H294.935C294.756 85.9844 294.593 86.18 294.446 86.4733C294.316 86.7504 294.251 87.0437 294.251 87.3208ZM303.527 83.7843L303.544 81.519L303.527 79.2699C303.511 78.6343 303.495 78.1454 303.479 77.8195C303.462 77.5098 303.43 77.1839 303.381 76.8742C303.788 76.8905 304.261 76.9068 304.783 76.9068C305.321 76.9068 305.81 76.8905 306.218 76.8742C306.169 77.1839 306.136 77.5098 306.12 77.8195C306.087 78.1454 306.071 78.6343 306.071 79.2699L306.055 81.5353L306.071 83.7843C306.071 84.4362 306.087 84.9088 306.12 85.2347C306.136 85.5444 306.169 85.8703 306.218 86.18C305.81 86.1637 305.337 86.1474 304.799 86.1474C304.261 86.1474 303.788 86.1637 303.381 86.18C303.43 85.8703 303.462 85.5444 303.479 85.2347C303.495 84.9088 303.511 84.4362 303.527 83.7843ZM304.799 71.8221C305.223 71.8221 305.582 71.9688 305.859 72.2621C306.152 72.5555 306.299 72.8977 306.299 73.3214C306.299 73.7452 306.152 74.1037 305.859 74.3971C305.582 74.6741 305.223 74.8208 304.799 74.8208C304.375 74.8208 304.017 74.6741 303.723 74.3971C303.446 74.1037 303.299 73.7452 303.299 73.3214C303.299 72.8977 303.446 72.5555 303.723 72.2621C304.017 71.9688 304.375 71.8221 304.799 71.8221ZM313.473 86.4244C312.022 86.4244 310.864 85.9844 310 85.137C309.136 84.2732 308.712 83.0998 308.712 81.6168C308.712 80.1011 309.12 78.8951 309.951 77.9988C310.783 77.1024 311.908 76.6624 313.31 76.6624C314.565 76.6624 315.56 77.0535 316.293 77.8684C316.897 78.5203 317.239 79.3677 317.353 80.4108C317.386 80.6878 317.402 80.9649 317.418 81.2256C317.418 81.5027 317.418 81.6819 317.402 81.796V81.8123C317.157 81.7634 316.734 81.7308 316.147 81.6982C315.56 81.6656 314.94 81.6493 314.321 81.6493H311.5C311.565 82.7087 311.793 83.5235 312.201 84.1102C312.674 84.7947 313.375 85.137 314.304 85.137C314.793 85.137 315.25 85.0718 315.69 84.9251C316.114 84.7947 316.505 84.5992 316.864 84.3221L317.043 84.534L316.538 85.6585C316.065 85.9029 315.576 86.0985 315.054 86.2289C314.532 86.3593 314.011 86.4244 313.473 86.4244ZM314.598 80.6389V80.2804C314.598 79.3677 314.467 78.6832 314.223 78.2269C313.978 77.7543 313.603 77.5261 313.114 77.5261H313.13C312.592 77.5261 312.185 77.8358 311.891 78.4388C311.647 78.9603 311.516 79.6937 311.484 80.6389H314.598ZM324.298 79.0581C324.152 78.5855 323.891 78.2106 323.532 77.9336C323.174 77.6728 322.766 77.5261 322.277 77.5261C321.885 77.5261 321.543 77.6402 321.282 77.8521C321.005 78.0802 320.875 78.341 320.875 78.6669C320.875 78.9929 321.005 79.2862 321.266 79.4981C321.511 79.71 321.983 79.9381 322.684 80.1663C323.646 80.5085 324.347 80.8997 324.755 81.356C325.179 81.8123 325.374 82.399 325.374 83.1324C325.374 84.0776 325.065 84.8599 324.413 85.4792C323.777 86.1148 322.962 86.4244 321.983 86.4244C321.462 86.4244 320.94 86.3593 320.402 86.2126C319.864 86.0659 319.424 85.8866 319.081 85.6585C319.163 85.3325 319.228 85.0555 319.277 84.8273C319.31 84.5828 319.342 84.3058 319.391 83.9798L319.766 83.9636C320.092 84.4851 320.434 84.8925 320.826 85.1533C321.201 85.414 321.608 85.5444 322.049 85.5444C322.489 85.5444 322.864 85.4466 323.174 85.2184C323.467 85.0066 323.63 84.7295 323.63 84.4036C323.63 84.0287 323.483 83.7354 323.222 83.5072C322.962 83.2791 322.489 83.0346 321.788 82.8065C320.809 82.4642 320.108 82.0731 319.701 81.6168C319.277 81.1604 319.081 80.5574 319.081 79.8078C319.081 78.9114 319.391 78.1617 320.027 77.5587C320.663 76.9557 321.445 76.6624 322.407 76.6624C322.864 76.6624 323.304 76.7113 323.744 76.8254C324.168 76.9394 324.625 77.1187 325.13 77.3795C325.016 77.6891 324.918 77.9662 324.853 78.1943C324.771 78.4388 324.706 78.7158 324.641 79.0581H324.298Z" clip-rule="evenodd" fill-rule="evenodd"></path>
</g>
<defs>
<clipPath id="clip0_215_261">
<rect fill="white" height="100" width="328"></rect>
</clipPath>
</defs>
</svg>
