<svg xmlns="http://www.w3.org/2000/svg" fill="none" viewBox="0 0 676 106" height="106" width="676">
<path fill="#004681" d="M616.693 42.1348L591.011 4.34423H569.499L595.182 42.1348L569.499 79.9255H591.011L616.693 42.1348Z"></path>
<path fill="#004681" d="M676 42.1348L650.317 4.34423H628.806L654.489 42.1348L628.806 79.9255H650.317L676 42.1348Z"></path>
<path fill="#8E8E8E" d="M620.664 4.34423H599.153L624.835 42.1348L599.153 79.9255H620.664L646.347 42.1348L620.664 4.34423Z"></path>
<path fill="#004681" d="M54.1975 79.9255H43.6532L31.0001 58.7315C29.8402 56.7632 28.7155 55.0937 27.6259 53.723C26.5364 52.3171 25.4117 51.1748 24.2518 50.2961C23.1271 49.4174 21.8969 48.7848 20.5613 48.3981C19.2608 47.9764 17.7846 47.7655 16.1327 47.7655H8.85717V79.9255H0V4.32314H22.5647C25.8686 4.32314 28.9088 4.74491 31.6855 5.58845C34.4973 6.39685 36.9225 7.64458 38.961 9.33167C41.0347 11.0187 42.6515 13.1276 43.8114 15.6582C44.9712 18.1537 45.5512 21.0885 45.5512 24.4627C45.5512 27.0987 45.147 29.5239 44.3386 31.7382C43.5653 33.9174 42.4406 35.868 40.9644 37.5903C39.5234 39.3125 37.766 40.7887 35.6923 42.0189C33.6537 43.2139 31.3516 44.1453 28.7858 44.8131V45.024C30.0511 45.5863 31.1407 46.2366 32.0545 46.9747C33.0035 47.6776 33.8998 48.5211 34.7433 49.5053C35.5869 50.4894 36.4128 51.6141 37.2212 52.8794C38.0648 54.1096 38.9962 55.5506 40.0154 57.2026L54.1975 79.9255ZM8.85717 12.3368V39.7518H20.8776C23.0919 39.7518 25.1305 39.4179 26.9933 38.7501C28.8913 38.0823 30.5256 37.1334 31.8964 35.9032C33.2671 34.6379 34.3391 33.109 35.1124 31.3164C35.8856 29.4888 36.2722 27.4502 36.2722 25.2008C36.2722 21.1588 34.9542 18.0131 32.3181 15.7637C29.7172 13.4791 25.9389 12.3368 20.9831 12.3368H8.85717Z"></path>
<path fill="#004681" d="M70.3344 12.2313C68.7879 12.2313 67.4699 11.7041 66.3803 10.6497C65.2907 9.59527 64.7459 8.25967 64.7459 6.64288C64.7459 5.02609 65.2907 3.69049 66.3803 2.63606C67.4699 1.54649 68.7879 1.0017 70.3344 1.0017C71.916 1.0017 73.2516 1.54649 74.3412 2.63606C75.4659 3.69049 76.0283 5.02609 76.0283 6.64288C76.0283 8.18937 75.4659 9.5074 74.3412 10.597C73.2516 11.6865 71.916 12.2313 70.3344 12.2313ZM74.5521 79.9255H65.9058V25.9389H74.5521V79.9255Z"></path>
<path fill="#004681" d="M140.563 75.6023C140.563 95.4255 131.074 105.337 112.094 105.337C105.416 105.337 99.5813 104.072 94.5904 101.541V92.8949C100.671 96.269 106.47 97.9561 111.988 97.9561C125.274 97.9561 131.917 90.8915 131.917 76.7622V70.8574H131.706C127.594 77.7463 121.408 81.1908 113.148 81.1908C106.435 81.1908 101.022 78.8007 96.9101 74.0207C92.833 69.2055 90.7945 62.7559 90.7945 54.672C90.7945 45.4985 92.9912 38.2053 97.3846 32.7926C101.813 27.3799 107.859 24.6736 115.521 24.6736C122.796 24.6736 128.191 27.5908 131.706 33.4253H131.917V25.9389H140.563V75.6023ZM131.917 55.5155V47.5546C131.917 43.2666 130.458 39.5937 127.541 36.5358C124.659 33.478 121.056 31.9491 116.733 31.9491C111.391 31.9491 107.208 33.8998 104.186 37.8012C101.163 41.6674 99.6516 47.0977 99.6516 54.092C99.6516 60.1022 101.093 64.9175 103.975 68.5377C106.892 72.1227 110.741 73.9152 115.521 73.9152C120.371 73.9152 124.308 72.193 127.33 68.7485C130.388 65.3041 131.917 60.8931 131.917 55.5155Z"></path>
<path fill="#004681" d="M205.309 79.9255H196.663V48.8199C196.663 37.5727 192.48 31.9491 184.115 31.9491C179.898 31.9491 176.348 33.5835 173.466 36.8522C170.584 40.0857 169.143 44.2507 169.143 49.3471V79.9255H160.496V0H169.143V34.9015H169.353C173.501 28.0829 179.406 24.6736 187.068 24.6736C199.229 24.6736 205.309 32.0018 205.309 46.6583V79.9255Z"></path>
<path fill="#004681" d="M249.125 79.3982C247.086 80.523 244.398 81.0853 241.059 81.0853C231.604 81.0853 226.876 75.8132 226.876 65.2689V33.3198H217.598V25.9389H226.876V12.7585L235.523 9.96432V25.9389H249.125V33.3198H235.523V63.74C235.523 67.3602 236.138 69.9436 237.368 71.49C238.598 73.0365 240.637 73.8098 243.484 73.8098C245.663 73.8098 247.543 73.2123 249.125 72.0173V79.3982Z"></path>
<path fill="#8E8E8E" d="M265.614 79.9255V4.32314H286.491C313.133 4.32314 326.454 16.6072 326.454 41.1753C326.454 52.8443 322.746 62.2287 315.33 69.3285C307.949 76.3931 298.055 79.9255 285.648 79.9255H265.614ZM274.471 12.3368V71.9118H285.753C295.665 71.9118 303.38 69.2582 308.898 63.9509C314.416 58.6436 317.175 51.1221 317.175 41.3862C317.175 22.0199 306.877 12.3368 286.281 12.3368H274.471Z"></path>
<path fill="#8E8E8E" d="M347.02 12.2313C345.473 12.2313 344.155 11.7041 343.066 10.6497C341.976 9.59527 341.431 8.25967 341.431 6.64288C341.431 5.02609 341.976 3.69049 343.066 2.63606C344.155 1.54649 345.473 1.0017 347.02 1.0017C348.601 1.0017 349.937 1.54649 351.026 2.63606C352.151 3.69049 352.714 5.02609 352.714 6.64288C352.714 8.18937 352.151 9.5074 351.026 10.597C349.937 11.6865 348.601 12.2313 347.02 12.2313ZM351.237 79.9255H342.591V25.9389H351.237V79.9255Z"></path>
<path fill="#8E8E8E" d="M399.323 34.6906C397.812 33.5307 395.633 32.9508 392.786 32.9508C389.095 32.9508 386.002 34.6906 383.507 38.1702C381.047 41.6498 379.816 46.3947 379.816 52.4049V79.9255H371.17V25.9389H379.816V37.0631H380.027C381.258 33.2671 383.138 30.3147 385.669 28.2059C388.199 26.0619 391.029 24.9899 394.157 24.9899C396.406 24.9899 398.128 25.2359 399.323 25.728V34.6906Z"></path>
<path fill="#8E8E8E" d="M454.527 55.0937H416.409C416.55 61.104 418.167 65.7434 421.26 69.0121C424.353 72.2809 428.605 73.9152 434.018 73.9152C440.099 73.9152 445.687 71.9118 450.784 67.905V76.0241C446.039 79.4685 439.765 81.1908 431.962 81.1908C424.335 81.1908 418.342 78.748 413.984 73.8625C409.626 68.9418 407.447 62.0354 407.447 53.143C407.447 44.7428 409.819 37.9066 414.564 32.6345C419.344 27.3272 425.266 24.6736 432.331 24.6736C439.396 24.6736 444.861 26.9581 448.727 31.5273C452.594 36.0965 454.527 42.4406 454.527 50.5597V55.0937ZM445.67 47.7655C445.634 42.7745 444.422 38.8907 442.032 36.1141C439.677 33.3374 436.391 31.9491 432.173 31.9491C428.096 31.9491 424.634 33.4077 421.787 36.325C418.94 39.2422 417.183 43.0557 416.515 47.7655H445.67Z"></path>
<path fill="#8E8E8E" d="M506.883 77.4475C502.736 79.943 497.815 81.1908 492.121 81.1908C484.424 81.1908 478.203 78.6953 473.458 73.7043C468.748 68.6782 466.393 62.176 466.393 54.1975C466.393 45.3051 468.941 38.1702 474.038 32.7926C479.134 27.3799 485.935 24.6736 494.441 24.6736C499.186 24.6736 503.368 25.5522 506.989 27.3096V36.1668C502.982 33.355 498.694 31.9491 494.125 31.9491C488.607 31.9491 484.072 33.9349 480.523 37.9066C477.008 41.8431 475.25 47.0274 475.25 53.4594C475.25 59.7859 476.902 64.7769 480.206 68.4322C483.545 72.0876 488.009 73.9152 493.597 73.9152C498.307 73.9152 502.736 72.3512 506.883 69.223V77.4475Z"></path>
<path fill="#8E8E8E" d="M547.43 79.3982C545.392 80.523 542.703 81.0853 539.364 81.0853C529.909 81.0853 525.182 75.8132 525.182 65.2689V33.3198H515.903V25.9389H525.182V12.7585L533.828 9.96432V25.9389H547.43V33.3198H533.828V63.74C533.828 67.3602 534.443 69.9436 535.673 71.49C536.903 73.0365 538.942 73.8098 541.789 73.8098C543.968 73.8098 545.848 73.2123 547.43 72.0173V79.3982Z"></path>
</svg>
